<?xml version="1.0" encoding="UTF-8"?>
<svg width="64px" height="64px" viewBox="0 0 64 64" version="1.1" xmlns="http://www.w3.org/2000/svg" xmlns:xlink="http://www.w3.org/1999/xlink">
    <title>Logo</title>
    <defs>
        <linearGradient x1="0%" y1="0%" x2="100%" y2="100%" id="linearGradient-1">
            <stop stop-color="#FFFFFF" stop-opacity="0.5" offset="0%"></stop>
            <stop stop-color="#000000" stop-opacity="0.5" offset="100%"></stop>
        </linearGradient>
        <linearGradient x1="50%" y1="0%" x2="50%" y2="100%" id="linearGradient-2">
            <stop stop-color="#FFFFFF" stop-opacity="0.5" offset="0%"></stop>
            <stop stop-color="#000000" stop-opacity="0.5" offset="100%"></stop>
        </linearGradient>
        <path d="M14.2555408,4 L49.7444592,4 C53.3105342,4 54.6036791,4.37130244 55.9073828,5.06853082 C57.2110865,5.76575919 58.2342408,6.78891348 58.9314692,8.09261719 C59.6286976,9.39632089 60,10.6894658 60,14.2555408 L60,49.7444592 C60,53.3105342 59.6286976,54.6036791 58.9314692,55.9073828 C58.2342408,57.2110865 57.2110865,58.2342408 55.9073828,58.9314692 C54.6036791,59.6286976 53.3105342,60 49.7444592,60 L14.2555408,60 C10.6894658,60 9.39632089,59.6286976 8.09261719,58.9314692 C6.78891348,58.2342408 5.76575919,57.2110865 5.06853082,55.9073828 C4.37130244,54.6036791 4,53.3105342 4,49.7444592 L4,14.2555408 C4,10.6894658 4.37130244,9.39632089 5.06853082,8.09261719 C5.76575919,6.78891348 6.78891348,5.76575919 8.09261719,5.06853082 C9.39632089,4.37130244 10.6894658,4 14.2555408,4 Z" id="path-3"></path>
        <filter x="-10.7%" y="-10.7%" width="121.4%" height="121.4%" filterUnits="objectBoundingBox" id="filter-4">
            <feGaussianBlur stdDeviation="4" in="SourceAlpha" result="shadowBlurInner1"></feGaussianBlur>
            <feOffset dx="0" dy="4" in="shadowBlurInner1" result="shadowOffsetInner1"></feOffset>
            <feComposite in="shadowOffsetInner1" in2="SourceAlpha" operator="arithmetic" k2="-1" k3="1" result="shadowInnerInner1"></feComposite>
            <feColorMatrix values="0 0 0 0 1   0 0 0 0 1   0 0 0 0 1  0 0 0 0.06 0" type="matrix" in="shadowInnerInner1"></feColorMatrix>
        </filter>
    </defs>
    <g id="Logo" stroke="none" stroke-width="1" fill="none" fill-rule="evenodd">
        <g id="helpers_backup" transform="translate(0.000000, -9.000000)"></g>
        <g id="background">
            <use fill="#025D9A" fill-rule="evenodd" xlink:href="#path-3"></use>
            <use fill-opacity="0.12" fill="url(#linearGradient-1)" fill-rule="evenodd" style="mix-blend-mode: overlay;" xlink:href="#path-3"></use>
            <use fill-opacity="0.28" fill="url(#linearGradient-2)" fill-rule="evenodd" style="mix-blend-mode: overlay;" xlink:href="#path-3"></use>
            <use fill="black" fill-opacity="1" filter="url(#filter-4)" xlink:href="#path-3"></use>
        </g>
        <g id="content" transform="translate(10.000000, 10.000000)" fill="#FFFFFF">
            <path d="M34.35558,30.358889 L37.9454213,28.2877935 C38.313325,28.0755379 38.7665049,28.0756189 39.1343328,28.288006 L41.7894706,29.821106 L41.7894706,29.821106 C42.9438219,30.487571 43.2930247,30.8494393 43.584733,31.3187842 C43.8764413,31.7881292 44.0164224,32.3105456 43.9984681,32.8628644 C43.9817107,33.378362 43.8747671,33.8378207 43.3187217,34.8353211 L42.2414946,36.7048241 C41.5750296,37.8591754 41.2131613,38.2083782 40.7438164,38.5000865 C40.2744714,38.7917948 39.752055,38.9317758 39.1997362,38.9138215 C38.6842386,38.8970641 38.2247799,38.7901206 37.2272795,38.2340752 L34.3556977,36.5778038 C33.987513,36.3654422 33.7606625,35.9727197 33.7606625,35.5476816 L33.7606625,31.3889434 C33.7606625,30.9639539 33.9874616,30.5712684 34.35558,30.358889 Z M6.04960776,28.2911911 L9.65152784,30.3707068 C10.0195861,30.5831998 10.2462672,30.97596 10.2461339,31.4009543 L10.2448347,35.5453869 C10.2447015,35.9701287 10.0180415,36.3625535 9.65019489,36.5749083 L6.99492237,38.1077751 L6.99492237,38.1077751 C6.07144137,38.6409471 5.57443253,38.8253315 5.12978099,38.886951 L4.91008632,38.9085767 C4.87362039,38.9108247 4.83708505,38.9124818 4.8002638,38.9136788 C4.24794498,38.9316331 3.7255286,38.791652 3.25618363,38.4999437 L3.16362556,38.440614 L2.98417727,38.3120382 C2.68895245,38.0822967 2.40486632,37.7605439 2.00982302,37.1252528 L1.75850541,36.7046814 L0.807435656,35.0573802 L0.568868885,34.6294471 C0.11041535,33.7717551 0.0170923583,33.341398 0.00153194687,32.8627217 C-0.0164223741,32.3104028 0.123558673,31.7879865 0.415266981,31.3186415 L0.536788894,31.1356588 C0.643566161,30.9863221 0.767808061,30.8428224 0.93720548,30.6898978 L1.16392925,30.5008875 C1.28990068,30.4031437 1.43611558,30.2998091 1.60855518,30.1875873 L1.99017289,29.9503171 C2.06019429,29.9084715 2.1335726,29.8653943 2.21052935,29.8209633 L4.86047543,28.2911716 C5.22840087,28.0787714 5.68168927,28.0787788 6.04960776,28.2911911 Z M33.865041,25.2457441 L35.7011397,26.3058162 C35.8433348,26.3879126 35.8920544,26.5697367 35.809958,26.7119318 C35.7838612,26.7571328 35.7463246,26.7946669 35.7011218,26.8207605 L31.9631915,28.978509 C31.595183,29.1909447 31.3684886,29.5835985 31.3685253,30.0085211 L31.3688991,34.3387248 C31.3689132,34.5029176 31.2358202,34.6360336 31.0716274,34.6360477 C31.0194332,34.6360523 30.9681576,34.6223157 30.9229558,34.596219 L29.0858781,33.5356072 C28.9019069,33.4293939 28.7885754,33.2331005 28.7885754,33.0206701 L28.7885754,28.5183076 C28.7885754,28.0933181 29.0153746,27.7006326 29.3834929,27.4882532 L33.2706078,25.2456509 C33.4545516,25.1395278 33.6811304,25.1395633 33.865041,25.2457441 Z M10.7244297,25.2489336 L14.6236149,27.500071 C14.9916732,27.712564 15.2183542,28.1053242 15.218221,28.5303185 L15.2168141,33.017951 C15.2167476,33.2303126 15.1034274,33.4265178 14.9195169,33.5326986 L13.0834182,34.5927707 C12.941223,34.6748671 12.7593989,34.6261474 12.6773025,34.4839523 C12.6512057,34.4387514 12.6374686,34.3874766 12.6374722,34.335283 L12.6377723,30.0192662 C12.6378019,29.5943436 12.411101,29.2016937 12.0430889,28.9892641 L8.29284089,26.8244891 C8.1506387,26.742405 8.10190337,26.560585 8.18398747,26.4183828 C8.21008121,26.3731781 8.24761623,26.3356399 8.29281867,26.3095422 L10.1298408,25.248937 C10.313807,25.1427241 10.5404623,25.1427228 10.7244297,25.2489336 Z M28.8757468,22.3647021 L30.7291714,23.4351575 C30.8713539,23.5172758 30.9200456,23.6991074 30.8379273,23.8412899 C30.8118313,23.8864734 30.7743033,23.9239931 30.7291139,23.950079 L26.9911044,26.1078732 C26.6230959,26.3203089 26.3964015,26.7129627 26.3964382,27.1378853 L26.396812,31.4681548 C26.3968262,31.6323476 26.2637331,31.7654636 26.0995404,31.7654778 C26.0473573,31.7654823 25.9960923,31.7517515 25.9508973,31.7256655 L24.0913602,30.6523616 C23.9073472,30.5461513 23.7939894,30.3498255 23.7940005,30.1373605 L23.7942352,25.6423683 C23.7942573,25.2175929 24.0208503,24.8250833 24.3886872,24.6126446 L28.2810017,22.3646975 C28.465009,22.2584269 28.6917412,22.2584287 28.8757468,22.3647021 Z M15.7175556,22.3646819 L19.6113231,24.612635 C19.9792915,24.8250709 20.2059626,25.2176904 20.2059404,25.6425783 L20.2057057,30.1363916 C20.2056946,30.3487349 20.0924452,30.5449556 19.9085875,30.6511912 L18.0555948,31.7218763 C17.9134282,31.8040222 17.7315871,31.7553657 17.6494413,31.6131992 C17.6233112,31.5679769 17.6095557,31.516669 17.6095593,31.4644404 L17.6098594,27.1486304 C17.609889,26.7237078 17.383188,26.3310578 17.0151759,26.1186283 L13.2646829,23.9537118 C13.1224807,23.8716277 13.0737454,23.6898077 13.1558295,23.5476055 C13.1818992,23.5024424 13.2193897,23.4649309 13.2645381,23.4388357 L15.1227273,22.36483 C15.3067284,22.2584801 15.5335016,22.2584236 15.7175556,22.3646819 Z M26.7843306,16.5959015 L26.7842423,18.742198 C26.7842336,18.9546279 26.6708946,19.1509162 26.4869197,19.2571221 L22.5946318,21.5040808 C22.2267403,21.716459 21.7735001,21.7164708 21.4055975,21.5041119 L17.5128058,19.2571333 C17.3288006,19.1509227 17.2154476,18.9546031 17.2154563,18.7421446 L17.2155445,16.6030191 C17.2155513,16.4388264 17.3486613,16.3057273 17.5128541,16.3057341 C17.5650435,16.3057362 17.6163128,16.3194768 17.6615084,16.3455747 L21.3991598,18.5038553 C21.7671388,18.7163422 22.220534,18.7163384 22.5885095,18.5038453 L26.3383625,16.3384351 C26.4805505,16.2563264 26.6623789,16.3050304 26.7444875,16.4472184 C26.7705911,16.4924222 26.7843328,16.5437021 26.7843306,16.5959015 Z M26.7843518,10.8546054 L26.7843518,12.9758159 C26.7843518,13.1882417 26.6710252,13.3845316 26.4870603,13.4907466 L22.5879256,15.7419714 C22.219872,15.9544727 21.7663912,15.9544042 21.398402,15.7417916 L17.5127017,13.496757 C17.3288244,13.3905186 17.2155658,13.1942778 17.2155658,12.9819162 L17.2155658,10.861772 C17.2155658,10.6975793 17.3486703,10.5644747 17.5128631,10.5644747 C17.5650567,10.5644747 17.6163305,10.5782154 17.6615296,10.6043153 L21.3991598,12.7625837 C21.7671388,12.9750706 22.220534,12.9750668 22.5885095,12.7625737 L26.3383836,10.5971512 C26.4805717,10.5150426 26.6624,10.5637465 26.7445087,10.7059345 C26.7706102,10.7511347 26.7843518,10.8024101 26.7843518,10.8546054 Z M23.2067046,-2.84217094e-14 L23.6558303,0.0146731454 C24.2721743,0.04757465 24.6441242,0.12921782 24.9560411,0.255939109 L25.1571152,0.347058004 C25.1898196,0.363344126 25.2222887,0.380176716 25.2547753,0.39755075 C25.7420746,0.658161262 26.1245099,1.0405966 26.3851204,1.52789588 L26.4356132,1.62555602 L26.5267321,1.82663005 C26.6534534,2.138547 26.7350965,2.51049689 26.767998,3.1268409 L26.7826712,3.57596661 L26.7840633,6.89092646 C26.7842418,7.31595646 26.5575648,7.7087681 26.1894804,7.92128725 L22.5879256,10.0006998 C22.219872,10.2132011 21.7663912,10.2131325 21.398402,10.00052 L17.8098677,7.9271785 C17.4420971,7.71469227 17.2155773,7.32218653 17.2155959,6.89744468 L17.2157306,3.83147781 L17.2157306,3.83147781 L17.217576,3.57596661 L17.2322492,3.1268409 C17.2651507,2.51049689 17.3467939,2.138547 17.4735152,1.82663005 L17.564634,1.62555602 C17.5809202,1.59285158 17.5977528,1.5603825 17.6151268,1.52789588 C17.8757373,1.0405966 18.2581726,0.658161262 18.7454719,0.39755075 L18.8431321,0.347058004 L19.0442061,0.255939109 C19.356123,0.12921782 19.7280729,0.04757465 20.3444169,0.0146731454 L20.7935427,-2.84217094e-14 L23.2067046,-2.84217094e-14 Z" id="Combined-Shape"></path>
            <path d="M30.8418848,37.3075812 L31.8826839,37.9084868 C32.1670741,38.0726796 32.2645134,38.4363279 32.1003206,38.7207182 L30.6507468,41.2314537 C29.8410788,42.6338397 28.3808908,43.5260862 26.7760644,43.6161221 L26.5073409,43.6236502 L17.493666,43.6236502 C15.879328,43.6236502 14.3808056,42.8102577 13.4993108,41.4728479 L13.3502601,41.2314537 L11.9027737,38.7239948 C11.7387842,38.4395665 11.8361662,38.0760021 12.12037,37.9116239 L13.1629137,37.3093813 C13.4186753,37.1612796 13.7388253,37.2253254 13.9200434,37.4469076 L13.9750249,37.5265281 C13.9750821,37.5266272 13.9751394,37.5267264 13.9748992,37.526997 L15.421963,40.0353554 C15.778067,40.6521455 16.3858404,41.0715759 17.0731285,41.194253 L17.2815283,41.2220541 L17.493666,41.2314537 L26.5073409,41.2314537 C27.2962481,41.2314537 28.0298382,40.8429518 28.4741326,40.2010357 L28.5790438,40.0353554 L30.0294772,37.5251161 C30.1939039,37.2409528 30.5574617,37.1436045 30.8418848,37.3075812 Z M14.2282666,7.77362054 C14.5565835,7.77381562 14.8227485,8.03993311 14.8230023,8.36824992 L14.8232878,9.57224049 C14.8236669,9.86778739 14.6081266,10.1130226 14.3256217,10.1591709 L14.2291775,10.166976 C14.2290631,10.1669761 14.2289487,10.166976 14.2288343,10.1666328 L11.3330003,10.1656476 C10.6207924,10.1656476 9.95366839,10.4822796 9.50378285,11.0161501 L9.3755065,11.182729 L9.26129739,11.3617458 L4.75445994,19.1678173 C4.36000632,19.851031 4.32966374,20.6805896 4.66343218,21.3863179 L4.75445994,21.5600138 L6.20317421,24.0712456 C6.36705352,24.3557249 6.26958074,24.7192493 5.98536118,24.8835787 L4.94456213,25.4844843 C4.66017192,25.648677 4.29652357,25.5512377 4.13233081,25.2668475 L2.68275699,22.756112 C1.87308905,21.353726 1.83047494,19.6430428 2.55491468,18.2082045 L2.68275699,17.971719 L7.18959444,10.1656476 C7.99676341,8.76758991 9.45044313,7.87652761 11.0494214,7.78183568 L11.3330003,7.77345106 L14.2282666,7.77362054 Z M32.6668671,7.7727932 C34.286203,7.7727932 35.7890051,8.59122991 36.6693917,9.9360323 L36.810273,10.1649897 L41.3171104,17.9710612 C42.1242794,19.3691188 42.1691221,21.0735735 41.4516386,22.5056753 L41.3171104,22.7554542 L39.8693305,25.2627436 C39.7050031,25.5469768 39.3414561,25.6444237 39.0569985,25.4804851 L38.0141693,24.8787371 C37.7295686,24.7149091 37.6320431,24.3512839 37.7961684,24.0668547 L37.7966373,24.0667291 L39.2454075,21.5593559 C39.6015114,20.9425658 39.6608621,20.2065034 39.4234594,19.5499559 L39.3433361,19.3555758 L39.2454075,19.1671594 L34.73857,11.361088 C34.3441164,10.6778743 33.6408689,10.2368175 32.862806,10.1730053 L32.6668671,10.1649897 L29.7677194,10.1639972 C29.4394135,10.1636812 29.1733284,9.89750505 29.1731248,9.56919902 L29.1731248,8.3673878 C29.1731248,8.03900227 29.4393339,7.7727932 29.7677194,7.7727932 L32.6668671,7.7727932 Z" id="Combined-Shape" fill-opacity="0.4"></path>
            <path d="M25.8575426,34.432096 L26.8983416,35.0330016 C27.1828593,35.1969736 27.2802986,35.5606219 27.1161059,35.8450121 L27.1157575,35.8451054 L26.0180624,37.744487 C25.8281403,38.0734417 25.4950463,38.2901207 25.1232462,38.3342104 L24.9822109,38.3425361 L19.0017197,38.3425361 C18.6278105,38.3425361 18.2787538,38.1679927 18.0541949,37.8764361 L17.9658682,37.744487 L16.8789571,35.8607299 C16.7151607,35.5762468 16.8125633,35.2127586 17.096662,35.0482964 L18.1392056,34.4460538 C18.3950187,34.2980412 18.7151739,34.3620959 18.8963925,34.583679 L18.9512903,34.6636123 L18.9512903,34.6636123 L19.693196,35.9490695 L24.2930677,35.9502646 L25.0450176,34.6495631 C25.2096,34.365551 25.5730974,34.2682633 25.8575426,34.432096 Z M12.0485861,13.5379868 L14.2234232,13.5385727 C14.551691,13.5389624 14.8177796,13.8050596 14.8181588,14.1333274 L14.8184444,15.337318 C14.8187511,15.6657035 14.5526052,15.9319757 14.2242197,15.9320536 L14.2239908,15.9318247 L12.7397994,15.9316053 L10.4388285,19.9146135 L11.1892941,21.2161719 C11.3529646,21.5007105 11.2554695,21.8641524 10.9713636,22.0285728 L9.93056459,22.6294784 C9.64630189,22.793892 9.28265354,22.6964527 9.11846078,22.4120625 L9.11855419,22.4117142 L8.02248903,20.5113915 C7.83256692,20.1824368 7.81146446,19.7856294 7.95918166,19.4415963 L8.02248903,19.3152933 L11.0127347,14.1360359 C11.1996892,13.8122211 11.5253766,13.5972008 11.8901514,13.5485054 L12.0485861,13.5379868 Z M31.9636221,13.5379868 C32.3434663,13.5379868 32.6976628,13.7181152 32.9217456,14.0180586 L32.9994735,14.1360359 L35.9897192,19.3152933 C36.1766738,19.6391081 36.2000431,20.0286717 36.0598271,20.3689238 L35.9897192,20.5113915 L34.9017933,22.3945627 C34.7373218,22.6786561 34.3738306,22.776047 34.0893527,22.6122415 L33.0465235,22.0104935 C32.7904343,21.8629592 32.6858297,21.5536693 32.787117,21.2859378 L32.8288924,21.1984283 L32.8288924,21.1984283 L33.5711781,19.9131905 L31.2722773,15.9289872 L29.7698618,15.9281302 C29.4416089,15.9276038 29.1756065,15.6614496 29.1752673,15.3331965 L29.1752673,14.1313853 C29.1750378,13.8358383 29.3906442,13.5906543 29.6731608,13.5445729 L29.7698618,13.5370457 L29.7698618,13.5370457 L31.9636221,13.5379868 Z" id="Combined-Shape" fill-opacity="0.8"></path>
        </g>
    </g>
</svg>